<svg width="1148" height="307" viewBox="0 0 1148 307" fill="none" xmlns="http://www.w3.org/2000/svg">
<path fill-rule="evenodd" clip-rule="evenodd" d="M905.738 196.706L700.44 306.13L342.402 274.979L521.661 179.434C536.042 171.769 568.075 167.328 593.208 169.514L905.739 196.706L905.738 196.706ZM309.692 144.658C408.562 153.26 442.849 184.678 386.276 214.831L385.847 215.06C329.274 245.213 203.263 262.684 104.393 254.082C5.52343 245.48 -28.7636 214.062 27.8094 183.908L28.2378 183.68C84.8113 153.527 210.823 136.056 309.692 144.658ZM729.413 31.609L550.154 127.154C535.773 134.819 503.741 139.26 478.607 137.074L166.077 109.882L371.375 0.457764L729.413 31.609ZM1147.28 67.9655L941.981 177.389L629.45 150.198C604.317 148.011 595.6 140.024 609.982 132.359L789.241 36.8143L1147.28 67.9655Z" fill="url(#paint0_linear_2_12)"/>
<defs>
<linearGradient id="paint0_linear_2_12" x1="376.333" y1="0.889134" x2="423.472" y2="343.161" gradientUnits="userSpaceOnUse">
<stop stop-color="#FF8F71"/>
<stop offset="1" stop-color="#FF3E55"/>
</linearGradient>
</defs>
</svg>
