<svg width="178" height="28" viewBox="0 0 178 28" fill="none" xmlns="http://www.w3.org/2000/svg">
<path d="M42.551 19.5977C42.9651 19.5977 43.3323 19.5195 43.6526 19.3633C43.9729 19.1992 44.2229 18.9727 44.4026 18.6836C44.5901 18.3867 44.6877 18.0391 44.6956 17.6406H47.8713C47.8635 18.5312 47.6252 19.3242 47.1565 20.0195C46.6877 20.707 46.0588 21.25 45.2698 21.6484C44.4807 22.0391 43.5979 22.2344 42.6213 22.2344C41.637 22.2344 40.7776 22.0703 40.0432 21.7422C39.3167 21.4141 38.7112 20.9609 38.2268 20.3828C37.7424 19.7969 37.3792 19.1172 37.137 18.3438C36.8948 17.5625 36.7737 16.7266 36.7737 15.8359V15.4961C36.7737 14.5977 36.8948 13.7617 37.137 12.9883C37.3792 12.207 37.7424 11.5273 38.2268 10.9492C38.7112 10.3633 39.3167 9.90625 40.0432 9.57812C40.7698 9.25 41.6213 9.08594 42.5979 9.08594C43.637 9.08594 44.5471 9.28516 45.3284 9.68359C46.1174 10.082 46.7346 10.6523 47.1799 11.3945C47.6331 12.1289 47.8635 13 47.8713 14.0078H44.6956C44.6877 13.5859 44.5979 13.2031 44.426 12.8594C44.262 12.5156 44.0198 12.2422 43.6995 12.0391C43.387 11.8281 43.0002 11.7227 42.5393 11.7227C42.0471 11.7227 41.6448 11.8281 41.3323 12.0391C41.0198 12.2422 40.7776 12.5234 40.6057 12.8828C40.4338 13.2344 40.3127 13.6367 40.2424 14.0898C40.1799 14.5352 40.1487 15.0039 40.1487 15.4961V15.8359C40.1487 16.3281 40.1799 16.8008 40.2424 17.2539C40.3049 17.707 40.4221 18.1094 40.594 18.4609C40.7737 18.8125 41.0198 19.0898 41.3323 19.293C41.6448 19.4961 42.051 19.5977 42.551 19.5977ZM53.2034 12.0859V22H49.8284V9.32031H53.0042L53.2034 12.0859ZM57.0237 9.23828L56.9651 12.3672C56.801 12.3438 56.6018 12.3242 56.3674 12.3086C56.1409 12.2852 55.9338 12.2734 55.7463 12.2734C55.2698 12.2734 54.8557 12.3359 54.5042 12.4609C54.1604 12.5781 53.8713 12.7539 53.637 12.9883C53.4104 13.2227 53.2385 13.5078 53.1213 13.8438C53.012 14.1797 52.9495 14.5625 52.9338 14.9922L52.2542 14.7812C52.2542 13.9609 52.3362 13.207 52.5002 12.5195C52.6643 11.8242 52.9026 11.2188 53.2151 10.7031C53.5354 10.1875 53.926 9.78906 54.387 9.50781C54.8479 9.22656 55.3752 9.08594 55.969 9.08594C56.1565 9.08594 56.3479 9.10156 56.5432 9.13281C56.7385 9.15625 56.8987 9.19141 57.0237 9.23828ZM64.219 22.2344C63.2346 22.2344 62.3518 22.0781 61.5706 21.7656C60.7893 21.4453 60.1252 21.0039 59.5784 20.4414C59.0393 19.8789 58.6252 19.2266 58.3362 18.4844C58.0471 17.7344 57.9026 16.9375 57.9026 16.0938V15.625C57.9026 14.6641 58.0393 13.7852 58.3127 12.9883C58.5862 12.1914 58.9768 11.5 59.4846 10.9141C60.0002 10.3281 60.6252 9.87891 61.3596 9.56641C62.094 9.24609 62.9221 9.08594 63.844 9.08594C64.7424 9.08594 65.5393 9.23438 66.2346 9.53125C66.9299 9.82812 67.512 10.25 67.9807 10.7969C68.4573 11.3438 68.8167 12 69.0588 12.7656C69.301 13.5234 69.4221 14.3672 69.4221 15.2969V16.7031H59.344V14.4531H66.1057V14.1953C66.1057 13.7266 66.0198 13.3086 65.8479 12.9414C65.6838 12.5664 65.4338 12.2695 65.0979 12.0508C64.762 11.832 64.3323 11.7227 63.8088 11.7227C63.3635 11.7227 62.9807 11.8203 62.6604 12.0156C62.3401 12.2109 62.0784 12.4844 61.8752 12.8359C61.6799 13.1875 61.5315 13.6016 61.4299 14.0781C61.3362 14.5469 61.2893 15.0625 61.2893 15.625V16.0938C61.2893 16.6016 61.3596 17.0703 61.5002 17.5C61.6487 17.9297 61.8557 18.3008 62.1213 18.6133C62.3948 18.9258 62.7229 19.168 63.1057 19.3398C63.4963 19.5117 63.9377 19.5977 64.4299 19.5977C65.0393 19.5977 65.6057 19.4805 66.1292 19.2461C66.6604 19.0039 67.1174 18.6406 67.5002 18.1562L69.1409 19.9375C68.8752 20.3203 68.512 20.6875 68.051 21.0391C67.5979 21.3906 67.051 21.6797 66.4104 21.9062C65.7698 22.125 65.0393 22.2344 64.219 22.2344ZM78.1877 19.1406V13.4922C78.1877 13.0859 78.1213 12.7383 77.9885 12.4492C77.8557 12.1523 77.6487 11.9219 77.3674 11.7578C77.094 11.5938 76.7385 11.5117 76.301 11.5117C75.926 11.5117 75.6018 11.5781 75.3284 11.7109C75.0549 11.8359 74.844 12.0195 74.6956 12.2617C74.5471 12.4961 74.4729 12.7734 74.4729 13.0938H71.0979C71.0979 12.5547 71.2229 12.043 71.4729 11.5586C71.7229 11.0742 72.0862 10.6484 72.5627 10.2812C73.0393 9.90625 73.6057 9.61328 74.262 9.40234C74.926 9.19141 75.6682 9.08594 76.4885 9.08594C77.4729 9.08594 78.3479 9.25 79.1135 9.57812C79.8792 9.90625 80.4807 10.3984 80.9182 11.0547C81.3635 11.7109 81.5862 12.5312 81.5862 13.5156V18.9414C81.5862 19.6367 81.6292 20.207 81.7151 20.6523C81.801 21.0898 81.926 21.4727 82.0901 21.8008V22H78.6799C78.5159 21.6562 78.3909 21.2266 78.3049 20.7109C78.2268 20.1875 78.1877 19.6641 78.1877 19.1406ZM78.6331 14.2773L78.6565 16.1875H76.7698C76.3245 16.1875 75.9377 16.2383 75.6096 16.3398C75.2815 16.4414 75.012 16.5859 74.801 16.7734C74.5901 16.9531 74.4338 17.1641 74.3323 17.4062C74.2385 17.6484 74.1917 17.9141 74.1917 18.2031C74.1917 18.4922 74.2581 18.7539 74.3909 18.9883C74.5237 19.2148 74.7151 19.3945 74.9651 19.5273C75.2151 19.6523 75.5081 19.7148 75.844 19.7148C76.3518 19.7148 76.7932 19.6133 77.1682 19.4102C77.5432 19.207 77.8323 18.957 78.0354 18.6602C78.2463 18.3633 78.3557 18.082 78.3635 17.8164L79.2542 19.2461C79.1292 19.5664 78.9573 19.8984 78.7385 20.2422C78.5276 20.5859 78.2581 20.9102 77.9299 21.2148C77.6018 21.5117 77.2073 21.7578 76.7463 21.9531C76.2854 22.1406 75.7385 22.2344 75.1057 22.2344C74.301 22.2344 73.5706 22.0742 72.9143 21.7539C72.2659 21.4258 71.7502 20.9766 71.3674 20.4062C70.9924 19.8281 70.8049 19.1719 70.8049 18.4375C70.8049 17.7734 70.9299 17.1836 71.1799 16.668C71.4299 16.1523 71.7971 15.7188 72.2815 15.3672C72.7737 15.0078 73.387 14.7383 74.1213 14.5586C74.8557 14.3711 75.7073 14.2773 76.676 14.2773H78.6331ZM90.3987 9.32031V11.7109H83.0159V9.32031H90.3987ZM84.844 6.19141H88.219V18.1797C88.219 18.5469 88.2659 18.8281 88.3596 19.0234C88.4612 19.2188 88.6096 19.3555 88.8049 19.4336C89.0002 19.5039 89.2463 19.5391 89.5432 19.5391C89.7542 19.5391 89.9417 19.5312 90.1057 19.5156C90.2776 19.4922 90.4221 19.4688 90.5393 19.4453L90.551 21.9297C90.262 22.0234 89.9495 22.0977 89.6135 22.1523C89.2776 22.207 88.9065 22.2344 88.5002 22.2344C87.7581 22.2344 87.1096 22.1133 86.5549 21.8711C86.0081 21.6211 85.5862 21.2227 85.2893 20.6758C84.9924 20.1289 84.844 19.4102 84.844 18.5195V6.19141ZM91.4768 15.7891V15.543C91.4768 14.6133 91.6096 13.7578 91.8752 12.9766C92.1409 12.1875 92.5276 11.5039 93.0354 10.9258C93.5432 10.3477 94.1682 9.89844 94.9104 9.57812C95.6526 9.25 96.5042 9.08594 97.4651 9.08594C98.426 9.08594 99.2815 9.25 100.031 9.57812C100.781 9.89844 101.41 10.3477 101.918 10.9258C102.434 11.5039 102.824 12.1875 103.09 12.9766C103.356 13.7578 103.489 14.6133 103.489 15.543V15.7891C103.489 16.7109 103.356 17.5664 103.09 18.3555C102.824 19.1367 102.434 19.8203 101.918 20.4062C101.41 20.9844 100.785 21.4336 100.043 21.7539C99.301 22.0742 98.4495 22.2344 97.4885 22.2344C96.5276 22.2344 95.6721 22.0742 94.9221 21.7539C94.1799 21.4336 93.551 20.9844 93.0354 20.4062C92.5276 19.8203 92.1409 19.1367 91.8752 18.3555C91.6096 17.5664 91.4768 16.7109 91.4768 15.7891ZM94.8518 15.543V15.7891C94.8518 16.3203 94.8987 16.8164 94.9924 17.2773C95.0862 17.7383 95.2346 18.1445 95.4377 18.4961C95.6487 18.8398 95.9221 19.1094 96.2581 19.3047C96.594 19.5 97.0042 19.5977 97.4885 19.5977C97.9573 19.5977 98.3596 19.5 98.6956 19.3047C99.0315 19.1094 99.301 18.8398 99.5042 18.4961C99.7073 18.1445 99.8557 17.7383 99.9495 17.2773C100.051 16.8164 100.102 16.3203 100.102 15.7891V15.543C100.102 15.0273 100.051 14.543 99.9495 14.0898C99.8557 13.6289 99.7034 13.2227 99.4924 12.8711C99.2893 12.5117 99.0198 12.2305 98.6838 12.0273C98.3479 11.8242 97.9417 11.7227 97.4651 11.7227C96.9885 11.7227 96.5823 11.8242 96.2463 12.0273C95.9182 12.2305 95.6487 12.5117 95.4377 12.8711C95.2346 13.2227 95.0862 13.6289 94.9924 14.0898C94.8987 14.543 94.8518 15.0273 94.8518 15.543ZM108.938 12.0859V22H105.563V9.32031H108.739L108.938 12.0859ZM112.758 9.23828L112.699 12.3672C112.535 12.3438 112.336 12.3242 112.102 12.3086C111.875 12.2852 111.668 12.2734 111.481 12.2734C111.004 12.2734 110.59 12.3359 110.239 12.4609C109.895 12.5781 109.606 12.7539 109.371 12.9883C109.145 13.2227 108.973 13.5078 108.856 13.8438C108.746 14.1797 108.684 14.5625 108.668 14.9922L107.989 14.7812C107.989 13.9609 108.071 13.207 108.235 12.5195C108.399 11.8242 108.637 11.2188 108.949 10.7031C109.27 10.1875 109.66 9.78906 110.121 9.50781C110.582 9.22656 111.11 9.08594 111.703 9.08594C111.891 9.08594 112.082 9.10156 112.278 9.13281C112.473 9.15625 112.633 9.19141 112.758 9.23828ZM121.207 18.4961C121.207 18.2539 121.137 18.0352 120.996 17.8398C120.856 17.6445 120.594 17.4648 120.211 17.3008C119.836 17.1289 119.293 16.9727 118.582 16.832C117.942 16.6914 117.344 16.5156 116.789 16.3047C116.242 16.0859 115.766 15.8242 115.36 15.5195C114.961 15.2148 114.649 14.8555 114.422 14.4414C114.196 14.0195 114.082 13.5391 114.082 13C114.082 12.4688 114.196 11.9688 114.422 11.5C114.656 11.0312 114.989 10.6172 115.418 10.2578C115.856 9.89062 116.387 9.60547 117.012 9.40234C117.645 9.19141 118.356 9.08594 119.145 9.08594C120.246 9.08594 121.192 9.26172 121.981 9.61328C122.778 9.96484 123.387 10.4492 123.809 11.0664C124.239 11.6758 124.453 12.3711 124.453 13.1523H121.078C121.078 12.8242 121.008 12.5312 120.867 12.2734C120.735 12.0078 120.524 11.8008 120.235 11.6523C119.953 11.4961 119.586 11.418 119.133 11.418C118.758 11.418 118.434 11.4844 118.16 11.6172C117.887 11.7422 117.676 11.9141 117.528 12.1328C117.387 12.3438 117.317 12.5781 117.317 12.8359C117.317 13.0312 117.356 13.207 117.434 13.3633C117.52 13.5117 117.656 13.6484 117.844 13.7734C118.031 13.8984 118.274 14.0156 118.571 14.125C118.875 14.2266 119.25 14.3203 119.696 14.4062C120.61 14.5938 121.426 14.8398 122.145 15.1445C122.864 15.4414 123.434 15.8477 123.856 16.3633C124.278 16.8711 124.489 17.5391 124.489 18.3672C124.489 18.9297 124.364 19.4453 124.114 19.9141C123.864 20.3828 123.504 20.793 123.035 21.1445C122.567 21.4883 122.004 21.7578 121.348 21.9531C120.699 22.1406 119.969 22.2344 119.156 22.2344C117.977 22.2344 116.977 22.0234 116.156 21.6016C115.344 21.1797 114.727 20.6445 114.305 19.9961C113.891 19.3398 113.684 18.668 113.684 17.9805H116.883C116.899 18.4414 117.016 18.8125 117.235 19.0938C117.461 19.375 117.746 19.5781 118.09 19.7031C118.442 19.8281 118.821 19.8906 119.227 19.8906C119.664 19.8906 120.028 19.832 120.317 19.7148C120.606 19.5898 120.824 19.4258 120.973 19.2227C121.129 19.0117 121.207 18.7695 121.207 18.4961ZM137.895 19.5977C138.309 19.5977 138.676 19.5195 138.996 19.3633C139.317 19.1992 139.567 18.9727 139.746 18.6836C139.934 18.3867 140.031 18.0391 140.039 17.6406H143.215C143.207 18.5312 142.969 19.3242 142.5 20.0195C142.031 20.707 141.403 21.25 140.614 21.6484C139.824 22.0391 138.942 22.2344 137.965 22.2344C136.981 22.2344 136.121 22.0703 135.387 21.7422C134.66 21.4141 134.055 20.9609 133.571 20.3828C133.086 19.7969 132.723 19.1172 132.481 18.3438C132.239 17.5625 132.117 16.7266 132.117 15.8359V15.4961C132.117 14.5977 132.239 13.7617 132.481 12.9883C132.723 12.207 133.086 11.5273 133.571 10.9492C134.055 10.3633 134.66 9.90625 135.387 9.57812C136.114 9.25 136.965 9.08594 137.942 9.08594C138.981 9.08594 139.891 9.28516 140.672 9.68359C141.461 10.082 142.078 10.6523 142.524 11.3945C142.977 12.1289 143.207 13 143.215 14.0078H140.039C140.031 13.5859 139.942 13.2031 139.77 12.8594C139.606 12.5156 139.364 12.2422 139.043 12.0391C138.731 11.8281 138.344 11.7227 137.883 11.7227C137.391 11.7227 136.989 11.8281 136.676 12.0391C136.364 12.2422 136.121 12.5234 135.949 12.8828C135.778 13.2344 135.656 13.6367 135.586 14.0898C135.524 14.5352 135.492 15.0039 135.492 15.4961V15.8359C135.492 16.3281 135.524 16.8008 135.586 17.2539C135.649 17.707 135.766 18.1094 135.938 18.4609C136.117 18.8125 136.364 19.0898 136.676 19.293C136.989 19.4961 137.395 19.5977 137.895 19.5977ZM148.735 4V22H145.348V4H148.735ZM159.024 18.9648V9.32031H162.399V22H159.223L159.024 18.9648ZM159.399 16.3633L160.395 16.3398C160.395 17.1836 160.297 17.9688 160.102 18.6953C159.906 19.4141 159.614 20.0391 159.223 20.5703C158.832 21.0938 158.34 21.5039 157.746 21.8008C157.153 22.0898 156.453 22.2344 155.649 22.2344C155.031 22.2344 154.461 22.1484 153.938 21.9766C153.422 21.7969 152.977 21.5195 152.602 21.1445C152.235 20.7617 151.946 20.2734 151.735 19.6797C151.531 19.0781 151.43 18.3555 151.43 17.5117V9.32031H154.805V17.5352C154.805 17.9102 154.848 18.2266 154.934 18.4844C155.028 18.7422 155.156 18.9531 155.321 19.1172C155.485 19.2812 155.676 19.3984 155.895 19.4688C156.121 19.5391 156.371 19.5742 156.645 19.5742C157.34 19.5742 157.887 19.4336 158.285 19.1523C158.692 18.8711 158.977 18.4883 159.141 18.0039C159.313 17.5117 159.399 16.9648 159.399 16.3633ZM164.977 4H168.352V19.0938L168.012 22H164.977V4ZM176.379 15.5312V15.7773C176.379 16.7227 176.278 17.5898 176.074 18.3789C175.879 19.168 175.574 19.8516 175.16 20.4297C174.746 21 174.231 21.4453 173.614 21.7656C173.004 22.0781 172.285 22.2344 171.457 22.2344C170.684 22.2344 170.012 22.0781 169.442 21.7656C168.879 21.4531 168.406 21.0117 168.024 20.4414C167.641 19.8711 167.332 19.2031 167.098 18.4375C166.864 17.6719 166.688 16.8359 166.571 15.9297V15.3906C166.688 14.4844 166.864 13.6484 167.098 12.8828C167.332 12.1172 167.641 11.4492 168.024 10.8789C168.406 10.3086 168.879 9.86719 169.442 9.55469C170.004 9.24219 170.668 9.08594 171.434 9.08594C172.27 9.08594 172.996 9.24609 173.614 9.56641C174.239 9.87891 174.754 10.3242 175.16 10.9023C175.574 11.4727 175.879 12.1523 176.074 12.9414C176.278 13.7227 176.379 14.5859 176.379 15.5312ZM173.004 15.7773V15.5312C173.004 15.0156 172.965 14.5312 172.887 14.0781C172.817 13.6172 172.692 13.2148 172.512 12.8711C172.332 12.5195 172.086 12.2422 171.774 12.0391C171.469 11.8359 171.074 11.7344 170.59 11.7344C170.129 11.7344 169.739 11.8125 169.418 11.9688C169.098 12.125 168.832 12.3438 168.621 12.625C168.418 12.9062 168.266 13.2422 168.164 13.6328C168.063 14.0156 168 14.4375 167.977 14.8984V16.4336C168 17.0508 168.102 17.5977 168.281 18.0742C168.469 18.543 168.75 18.9141 169.125 19.1875C169.508 19.4531 170.004 19.5859 170.614 19.5859C171.09 19.5859 171.485 19.4922 171.797 19.3047C172.11 19.1172 172.352 18.8516 172.524 18.5078C172.703 18.1641 172.828 17.7617 172.899 17.3008C172.969 16.832 173.004 16.3242 173.004 15.7773Z" fill="white"/>
<path d="M6.8449 20.0698L0.283863 26.4037C-0.094621 26.7691 -0.094621 27.3598 0.283863 27.7252C0.472621 27.9075 0.720426 27.9991 0.968232 27.9991C1.21604 27.9991 1.46481 27.9075 1.6526 27.7252L8.21363 21.3914C7.93485 21.2306 7.66866 21.0512 7.43343 20.8241C7.19918 20.5951 7.01042 20.3381 6.8449 20.0698Z" fill="white"/>
<path d="M28.1058 0.864557C27.4979 0.278556 26.6374 0.000976562 25.6249 0.000976562C23.1768 0.000976562 19.8228 1.61879 16.9188 4.42169C13.7912 7.44235 10.7101 12.3023 10.3306 15.3323L8.80219 16.809C8.43145 17.166 8.2243 17.6492 8.2243 18.153C8.2243 18.6586 8.43242 19.1437 8.80316 19.4979C9.1739 19.8558 9.67435 20.0568 10.1971 20.0568C10.7198 20.0568 11.2231 19.8558 11.591 19.4988L13.1156 18.024C16.2528 17.6604 21.2873 14.6846 24.4197 11.6621C28.5269 7.7003 30.1773 2.86556 28.1058 0.864557ZM24.7072 5.93295C24.1903 6.4311 23.5089 6.70307 22.7877 6.70307C22.7858 6.70307 22.7838 6.70307 22.7829 6.70307C22.4441 6.70307 22.1266 6.83018 21.8875 7.06103C21.6484 7.29281 21.5158 7.59936 21.5158 7.92648C21.5158 8.6293 21.2341 9.2882 20.722 9.78261C20.2177 10.2705 19.5178 10.5499 18.8035 10.5499C18.4608 10.5499 18.1433 10.677 17.9042 10.9069C17.6651 11.1387 17.5335 11.4453 17.5335 11.7715C17.5344 12.464 17.2431 13.1416 16.7349 13.6304C16.2305 14.1173 15.5336 14.3968 14.8192 14.3968C14.8173 14.3968 14.8153 14.3968 14.8144 14.3968C14.4127 14.3959 14.0884 14.0818 14.0894 13.6949C14.0903 13.308 14.4156 12.9949 14.8153 12.9949H14.8163C14.8173 12.9949 14.8182 12.9949 14.8192 12.9949C15.1503 12.9949 15.4745 12.865 15.7098 12.6378C15.946 12.4098 16.0824 12.0948 16.0815 11.7733C16.0815 11.0714 16.3641 10.4125 16.8762 9.9172C17.3873 9.42185 18.0697 9.14895 18.7967 9.14895C19.1335 9.14895 19.4607 9.01904 19.694 8.79286C19.9321 8.56201 20.0638 8.25546 20.0638 7.93021C20.0638 7.22739 20.3474 6.56755 20.8595 6.07221C21.3706 5.57593 22.054 5.30302 22.7809 5.30302C22.7819 5.30302 22.7829 5.30302 22.7829 5.30302C23.1207 5.30302 23.4363 5.17592 23.6773 4.94413C23.9115 4.71609 24.049 4.40019 24.048 4.08242C24.0471 3.69456 24.3713 3.38146 24.7731 3.38053H24.774C25.1748 3.38053 25.499 3.69362 25.5 4.08055C25.5029 4.76469 25.2125 5.44135 24.7072 5.93295Z" fill="white"/>
</svg>
